<svg width="28" height="20" viewBox="0 0 33 25" fill="none" xmlns="http://www.w3.org/2000/svg">
<path d="M2.17233e-06 1.78412V23.2143C-0.000505623 23.545 0.0880212 23.8694 0.255686 24.151C0.423351 24.4327 0.663547 24.6607 0.94942 24.8095C1.23529 24.9582 1.55558 25.0219 1.87447 24.9934C2.19336 24.9648 2.49829 24.8452 2.75517 24.648L15.5443 14.8608V23.2143C15.5438 23.545 15.6324 23.8694 15.8 24.151C15.9677 24.4327 16.2079 24.6607 16.4938 24.8095C16.7796 24.9582 17.0999 25.0219 17.4188 24.9934C17.7377 24.9648 18.0426 24.8452 18.2995 24.648L32.3009 13.9328C32.5178 13.7668 32.694 13.5507 32.8154 13.3017C32.9368 13.0527 33 12.7777 33 12.4989C33 12.2201 32.9368 11.9452 32.8154 11.6962C32.694 11.4472 32.5178 11.2311 32.3009 11.0651L18.2995 0.350506C18.0425 0.153817 17.7376 0.0347303 17.419 0.00651647C17.1003 -0.0216974 16.7803 0.0420702 16.4946 0.190713C16.2089 0.339356 15.9688 0.567034 15.801 0.848374C15.6333 1.12971 15.5444 1.45366 15.5443 1.78412V10.1377L2.75517 0.350506C2.49814 0.153817 2.1933 0.0347303 1.87461 0.00651647C1.55593 -0.0216974 1.23592 0.0420702 0.950254 0.190713C0.664586 0.339356 0.424482 0.567034 0.256701 0.848374C0.0889192 1.12971 5.16703e-05 1.45366 2.17233e-06 1.78412ZM17.8472 2.96486L30.3056 12.4992L17.8472 22.0336V2.96486ZM2.30287 2.96486L14.7613 12.4992L2.30287 22.0336V2.96486Z" fill="#ffffff"/>
</svg>
