<svg width="30" height="26" viewBox="0 0 30 26" fill="none" xmlns="http://www.w3.org/2000/svg">
<path d="M8.10106 1.49041C6.382 1.48872 4.7297 2.1558 3.49367 3.35054C2.86273 3.9577 2.36097 4.6861 2.01851 5.49199C1.67633 6.29725 1.50024 7.16329 1.50079 8.03821C1.49174 8.99277 1.67208 9.93965 2.03138 10.8241C2.39102 11.7093 2.9228 12.5144 3.5959 13.1926L3.59724 13.194L13.8958 23.4925C13.8961 23.4929 13.8965 23.4932 13.8968 23.4936C14.0361 23.6337 14.2016 23.7449 14.3839 23.8208C14.5667 23.897 14.7628 23.9362 14.9608 23.9362C15.1588 23.9362 15.3549 23.897 15.5377 23.8208C15.7201 23.7448 15.8858 23.6335 16.0251 23.4932C16.0253 23.493 16.0256 23.4927 16.0258 23.4925L26.5345 12.9738L26.5345 12.9738L26.538 12.9702C27.2043 12.2899 27.7191 11.4763 28.0485 10.5828C28.3777 9.69002 28.5145 8.73774 28.4498 7.78843C28.3918 6.82854 28.1273 5.89247 27.6742 5.04421C27.2209 4.19537 26.5895 3.45449 25.8233 2.87229L25.8233 2.87225L25.8175 2.86797C24.476 1.87888 22.8207 1.4112 21.1599 1.55208C19.4996 1.69292 17.9471 2.43239 16.7914 3.63276C16.7911 3.63307 16.7908 3.63339 16.7905 3.6337L15.3058 5.15831C15.3053 5.15877 15.3049 5.15922 15.3044 5.15968C15.2582 5.2059 15.2034 5.24262 15.1431 5.26775C15.0821 5.29314 15.0168 5.30621 14.9508 5.30621C14.8848 5.30621 14.8194 5.29314 14.7585 5.26775C14.6976 5.24237 14.6423 5.20517 14.5958 5.15831L14.5943 5.15686L12.8943 3.45685L12.8928 3.45532C11.6287 2.20218 9.92246 1.49642 8.14248 1.49041H8.14079H8.10106ZM8.10106 1.49041C8.10114 1.49041 8.10122 1.49041 8.1013 1.49041L8.10079 1.99041V1.49041H8.10106ZM13.1746 24.1971L13.1743 24.1969L2.87625 13.8988C2.87592 13.8984 2.87559 13.8981 2.87526 13.8978C2.10872 13.1226 1.50402 12.2028 1.09636 11.1917C0.688527 10.1802 0.486056 9.09767 0.500755 8.00714L0.500777 8.00411C0.508131 7.00971 0.711593 6.02654 1.09951 5.1109C1.48743 4.19526 2.05218 3.36515 2.76141 2.66812C3.47065 1.97108 4.31043 1.42081 5.23266 1.04884C6.15489 0.676864 7.14144 0.490487 8.13581 0.500384L8.13581 0.500484L8.14583 0.500384C9.158 0.490188 10.1619 0.683358 11.098 1.06844C12.0341 1.45352 12.8834 2.02266 13.5954 2.74213L13.5972 2.74396L14.5972 3.74396L14.9508 4.09752L15.3043 3.74396L16.1243 2.92396L16.1244 2.92399L16.1289 2.91931C17.4605 1.55249 19.2422 0.714541 21.1442 0.560655C23.0445 0.406898 24.9362 0.946462 26.4695 2.07947C27.34 2.75073 28.0578 3.59951 28.5752 4.56948C29.0933 5.54085 29.3985 6.61147 29.4705 7.71002C29.5425 8.80858 29.3796 9.90987 28.9927 10.9406C28.6058 11.9712 28.0038 12.9077 27.2266 13.6875L16.7271 24.197L16.727 24.1971C16.4941 24.4303 16.2174 24.6151 15.9127 24.741C15.6081 24.8668 15.2816 24.9312 14.952 24.9304L14.9496 24.9304C14.62 24.9312 14.2935 24.8668 13.9888 24.741C13.6842 24.6151 13.4075 24.4303 13.1746 24.1971Z" stroke="#ffffff"/>
</svg>
