<svg width="28" height="27" viewBox="0 0 28 27" fill="none" xmlns="http://www.w3.org/2000/svg">
<path d="M5 1.5C3.34315 1.5 2 2.50736 2 3.75V23.25C2 24.4926 3.34315 25.5 5 25.5H7C8.65685 25.5 10 24.4926 10 23.25V3.75C10 2.50736 8.65685 1.5 7 1.5H5ZM5 0H7C9.76142 0 12 1.67893 12 3.75V23.25C12 25.3211 9.76142 27 7 27H5C2.23858 27 0 25.3211 0 23.25V3.75C0 1.67893 2.23858 0 5 0ZM21 0H23C25.7614 0 28 1.67893 28 3.75V23.25C28 25.3211 25.7614 27 23 27H21C18.2386 27 16 25.3211 16 23.25V3.75C16 1.67893 18.2386 0 21 0ZM21 1.5C19.3431 1.5 18 2.50736 18 3.75V23.25C18 24.4926 19.3431 25.5 21 25.5H23C24.6569 25.5 26 24.4926 26 23.25V3.75C26 2.50736 24.6569 1.5 23 1.5H21Z" fill="#ffffff"/>
</svg>
