<svg width="24" height="31" viewBox="0 0 24 31" fill="none" xmlns="http://www.w3.org/2000/svg">
<path d="M3.72 31H2.82C2.0729 30.9974 1.35715 30.6994 0.82887 30.1711C0.300588 29.6428 0.0026353 28.9271 0 28.18V2.82C0.0026353 2.0729 0.300588 1.35715 0.82887 0.82887C1.35715 0.300588 2.0729 0.0026353 2.82 0H3.72C4.72163 0.194222 5.64156 0.685551 6.36 1.41L22.55 12.87C23.2474 13.5676 23.6391 14.5136 23.6391 15.5C23.6391 16.4864 23.2474 17.4324 22.55 18.13L22.43 18.24L6.36 29.59C5.64156 30.3144 4.72163 30.8058 3.72 31ZM3.66 2H2.82C2.60242 2.00517 2.39534 2.09458 2.24238 2.2494C2.08943 2.40423 2.00253 2.61238 2 2.83V28.18C2 28.3975 2.08639 28.606 2.24017 28.7598C2.39395 28.9136 2.60252 29 2.82 29H3.72C4.18885 28.765 4.62021 28.4617 5 28.1L5.17 28L21.17 16.68C21.4588 16.3647 21.619 15.9526 21.619 15.525C21.619 15.0974 21.4588 14.6853 21.17 14.37L5 2.89C4.6043 2.52295 4.15177 2.2224 3.66 2Z" fill="#ffffff"/>
</svg>
