<svg width="30" height="26" viewBox="0 0 30 26" fill="none" xmlns="http://www.w3.org/2000/svg">
<path d="M17 25.9918C16.7961 25.9913 16.5972 25.9285 16.43 25.8118L6.43 18.8118C6.29753 18.7199 6.18925 18.5973 6.11438 18.4546C6.03951 18.3118 6.00027 18.153 6 17.9918V7.99179C6.00027 7.83057 6.03951 7.67181 6.11438 7.52903C6.18925 7.38625 6.29753 7.26369 6.43 7.17179L16.43 0.171795C16.5758 0.0731512 16.745 0.0147324 16.9206 0.00244133C17.0962 -0.00984971 17.2719 0.0244223 17.43 0.101795C17.5987 0.182101 17.7414 0.30804 17.8422 0.465341C17.9429 0.622642 17.9976 0.805015 18 0.991795V24.9918C18.0004 25.1754 17.9502 25.3556 17.8549 25.5126C17.7597 25.6696 17.623 25.7973 17.46 25.8818C17.3177 25.9547 17.1599 25.9924 17 25.9918ZM8 17.4718L16 23.0718V2.91179L8 8.5118V17.4718Z" fill="#ffffff"/>
<path d="M7 18.9918H3C2.20435 18.9918 1.44129 18.6757 0.87868 18.1131C0.31607 17.5505 0 16.7874 0 15.9918V9.99179C0 9.19614 0.31607 8.43308 0.87868 7.87047C1.44129 7.30786 2.20435 6.99179 3 6.99179H7C7.26522 6.99179 7.51957 7.09715 7.70711 7.28468C7.89464 7.47222 8 7.72657 8 7.99179V17.9918C8 18.257 7.89464 18.5114 7.70711 18.6989C7.51957 18.8864 7.26522 18.9918 7 18.9918ZM3 8.99179C2.73478 8.99179 2.48043 9.09715 2.29289 9.28468C2.10536 9.47222 2 9.72657 2 9.99179V15.9918C2 16.257 2.10536 16.5114 2.29289 16.6989C2.48043 16.8864 2.73478 16.9918 3 16.9918H6V8.99179H3Z" fill="#ffffff"/>
<path d="M19 6.99999C19.728 7.30152 20.3894 7.74348 20.9465 8.30063C21.5037 8.85778 21.9456 9.51922 22.2472 10.2472C22.5487 10.9751 22.7039 11.7553 22.7039 12.5433C22.7039 13.3312 22.5487 14.1114 22.2472 14.8394C21.9456 15.5673 21.5037 16.2288 20.9465 16.7859C20.3894 17.3431 19.728 17.785 19 18.0865" stroke="#ffffff" stroke-width="2"/>
<path d="M20 4C21.1792 4.46236 22.2507 5.14005 23.1532 5.99438C24.0558 6.84871 24.7717 7.86295 25.2601 8.97918C25.7486 10.0954 26 11.2918 26 12.5C26 13.7082 25.7486 14.9046 25.2601 16.0208C24.7717 17.1371 24.0558 18.1513 23.1532 19.0056C22.2507 19.8599 21.1792 20.5376 20 21" stroke="#ffffff" stroke-width="2"/>
<path d="M21 1C22.5723 1.62555 24.0009 2.54242 25.2043 3.69828C26.4077 4.85414 27.3623 6.22634 28.0135 7.73654C28.6648 9.24675 29 10.8654 29 12.5C29 14.1346 28.6648 15.7533 28.0135 17.2635C27.3623 18.7737 26.4077 20.1459 25.2043 21.3017C24.0009 22.4576 22.5723 23.3745 21 24" stroke="#ffffff" stroke-width="2"/>
</svg>
